<svg width="26" height="26" viewBox="0 0 26 26" fill="none" xmlns="http://www.w3.org/2000/svg">
<g clip-path="url(#clip0_4_18)">
<path d="M22.5973 16.6086L18.511 23.2765C18.0622 24.0132 17.4514 24.6378 16.7248 25.1028C15.9983 25.5678 15.1753 25.8609 14.3185 25.9599C14.0927 25.9867 13.8655 26.0001 13.6381 26C12.474 25.9984 11.3389 25.6371 10.3881 24.9654C9.4056 25.7015 8.19192 26.0613 6.96697 25.9796C5.74202 25.898 4.58683 25.3802 3.71072 24.5202C2.83461 23.6602 2.29553 22.5149 2.19114 21.2916C2.08676 20.0684 2.42398 18.8483 3.14171 17.8523L1.71712 16.4298C1.10883 15.8215 0.646048 15.0834 0.363445 14.2709C0.0808418 13.4583 -0.0142611 12.5924 0.0852582 11.7379C0.184778 10.8834 0.47634 10.0624 0.93811 9.33659C1.39988 8.61074 2.01989 7.99877 2.75171 7.54651L8.99929 3.68334C10.6917 2.59868 12.6819 2.07281 14.6892 2.1799C16.6965 2.287 18.6195 3.02167 20.1869 4.28026L21.9841 2.48301C22.0841 2.37954 22.2036 2.29701 22.3358 2.24023C22.4679 2.18345 22.6101 2.15357 22.7539 2.15232C22.8978 2.15107 23.0404 2.17848 23.1736 2.23295C23.3067 2.28742 23.4277 2.36786 23.5294 2.46958C23.6311 2.5713 23.7115 2.69225 23.766 2.82539C23.8205 2.95853 23.8479 3.10118 23.8466 3.24503C23.8454 3.38887 23.8155 3.53102 23.7587 3.6632C23.702 3.79537 23.6194 3.91491 23.516 4.01484L21.7209 5.81101C22.9248 7.31927 23.6514 9.15247 23.8075 11.076C23.9636 12.9995 23.5422 14.9259 22.5973 16.6086ZM8.73712 23.4509L4.70821 19.4209C4.39336 19.984 4.27193 20.6348 4.36253 21.2735C4.45314 21.9123 4.75077 22.5036 5.20979 22.9569C5.67283 23.3968 6.26179 23.6808 6.89426 23.7694C7.52673 23.858 8.17107 23.7466 8.73712 23.4509ZM19.4849 6.55092C18.2819 5.33633 16.6983 4.5717 14.999 4.38495C13.2997 4.1982 11.5878 4.60067 10.1498 5.52501L3.89137 9.38818C3.4375 9.66872 3.05298 10.0483 2.76661 10.4985C2.48024 10.9488 2.29944 11.4579 2.23774 11.9879C2.17605 12.5179 2.23507 13.055 2.41038 13.559C2.58568 14.0629 2.87274 14.5207 3.25004 14.898L11.1475 22.7966C11.5254 23.1749 11.9842 23.4627 12.4893 23.6381C12.9945 23.8136 13.5328 23.8723 14.0639 23.8097C14.595 23.7471 15.1049 23.565 15.5555 23.2769C16.006 22.9889 16.3853 22.6024 16.665 22.1466L20.7329 15.5112C21.5274 14.0841 21.8354 12.4371 21.6102 10.8194C21.385 9.20164 20.6389 7.70131 19.4849 6.54551V6.55092ZM20.8705 26C20.6417 26.0004 20.4186 25.9284 20.2333 25.7943C20.048 25.6601 19.9099 25.4707 19.8388 25.2533C19.7677 25.0358 19.7673 24.8014 19.8376 24.5837C19.9079 24.366 20.0453 24.1761 20.2302 24.0413C22.1271 22.6152 23.4109 20.5212 23.8215 18.1838C23.8502 18.043 23.9067 17.9095 23.9876 17.7908C24.0685 17.6721 24.1722 17.5707 24.2926 17.4924C24.4131 17.4142 24.5479 17.3607 24.6892 17.335C24.8305 17.3093 24.9755 17.312 25.1157 17.3429C25.256 17.3738 25.3887 17.4322 25.5062 17.5149C25.6237 17.5975 25.7235 17.7027 25.8 17.8243C25.8764 17.9459 25.9279 18.0815 25.9515 18.2232C25.975 18.3649 25.9702 18.5098 25.9372 18.6496C25.4064 21.5006 23.8262 24.049 21.5085 25.792C21.3232 25.9271 21.0998 26 20.8705 26ZM1.08337 6.21726C0.883284 6.21637 0.687351 6.16008 0.517299 6.05463C0.347247 5.94919 0.209721 5.79871 0.119969 5.61987C0.0302162 5.44104 -0.00825528 5.24085 0.0088199 5.04149C0.0258951 4.84213 0.0978497 4.65139 0.216706 4.49042C1.9836 2.12939 4.58451 0.53119 7.48912 0.021674C7.77069 -0.0357896 8.06356 0.0209542 8.30329 0.179422C8.54303 0.337891 8.70999 0.585103 8.76746 0.866674C8.82492 1.14825 8.76818 1.44111 8.60971 1.68085C8.45124 1.92058 8.20403 2.08754 7.92246 2.14501C5.53693 2.53893 3.39654 3.8411 1.95004 5.77851C1.8497 5.91405 1.7191 6.0243 1.56864 6.10047C1.41818 6.17664 1.25201 6.21663 1.08337 6.21726Z" fill="#E5DDFE"/>
</g>
<defs>
<clipPath id="clip0_4_18">
<rect width="26" height="26" fill="white"/>
</clipPath>
</defs>
</svg>
