<svg width="40" height="40" viewBox="0 0 40 40" fill="none" xmlns="http://www.w3.org/2000/svg">
<circle cx="19.7486" cy="19.7486" r="19.7486" fill="#6739FF"/>
<g clip-path="url(#clip0_2019_4566)">
<path d="M19.7589 9.46284C14.0812 9.46284 9.48347 14.0708 9.48347 19.7486C9.48347 25.4263 14.0812 30.0343 19.7589 30.0343C25.4469 30.0343 30.0549 25.4263 30.0549 19.7486C30.0549 14.0708 25.4469 9.46284 19.7589 9.46284ZM19.7692 27.9771C15.2229 27.9771 11.5406 24.2948 11.5406 19.7486C11.5406 15.2023 15.2229 11.52 19.7692 11.52C24.3155 11.52 27.9978 15.2023 27.9978 19.7486C27.9978 24.2948 24.3155 27.9771 19.7692 27.9771ZM23.3692 18.72C24.2229 18.72 24.912 18.0308 24.912 17.1771C24.912 16.3234 24.2229 15.6343 23.3692 15.6343C22.5155 15.6343 21.8263 16.3234 21.8263 17.1771C21.8263 18.0308 22.5155 18.72 23.3692 18.72ZM16.1692 18.72C17.0229 18.72 17.712 18.0308 17.712 17.1771C17.712 16.3234 17.0229 15.6343 16.1692 15.6343C15.3155 15.6343 14.6263 16.3234 14.6263 17.1771C14.6263 18.0308 15.3155 18.72 16.1692 18.72ZM19.7692 25.4057C21.8572 25.4057 23.6778 24.264 24.6549 22.5771C24.8503 22.2377 24.6035 21.8057 24.2023 21.8057H15.336C14.9452 21.8057 14.688 22.2377 14.8835 22.5771C15.8606 24.264 17.6812 25.4057 19.7692 25.4057Z" fill="white"/>
</g>
<defs>
<clipPath id="clip0_2019_4566">
<rect width="24.6857" height="24.6857" fill="white" transform="translate(7.40575 7.4057)"/>
</clipPath>
</defs>
</svg>
